<svg width="20" height="21" viewBox="0 0 20 21" fill="none" xmlns="http://www.w3.org/2000/svg">
<path d="M18.366 10.8519C18.2027 10.6662 18.1127 10.4274 18.1127 10.1801C18.1127 9.93285 18.2027 9.69406 18.366 9.50831L19.6689 8.04257C19.8124 7.88243 19.9015 7.68092 19.9234 7.46698C19.9454 7.25302 19.899 7.03762 19.791 6.85166L17.7553 3.32983C17.6483 3.14408 17.4853 2.99686 17.2898 2.90913C17.0942 2.8214 16.8759 2.79764 16.6661 2.84125L14.7525 3.22804C14.509 3.27835 14.2555 3.2378 14.0398 3.11404C13.8242 2.99027 13.6613 2.79186 13.582 2.55624L12.9611 0.693537C12.8928 0.491367 12.7627 0.315769 12.5891 0.191566C12.4156 0.0673617 12.2074 0.000833432 11.9941 0.00138427H7.92256C7.70059 -0.0102012 7.48094 0.051185 7.29715 0.176167C7.11335 0.30115 6.97551 0.482857 6.90468 0.693537L6.33468 2.55624C6.25528 2.79186 6.09239 2.99027 5.87675 3.11404C5.6611 3.2378 5.40762 3.27835 5.16412 3.22804L3.19963 2.84125C3.00069 2.81313 2.79788 2.84453 2.61675 2.93147C2.43562 3.01842 2.28426 3.15702 2.18176 3.32983L0.146015 6.85166C0.0352296 7.03554 -0.014583 7.24974 0.00369847 7.46363C0.0219799 7.67752 0.107419 7.88016 0.247802 8.04257L1.5405 9.50831C1.70368 9.69406 1.79368 9.93285 1.79368 10.1801C1.79368 10.4274 1.70368 10.6662 1.5405 10.8519L0.247802 12.3177C0.107419 12.48 0.0219799 12.6827 0.00369847 12.8965C-0.014583 13.1105 0.0352296 13.3247 0.146015 13.5086L2.18176 17.0304C2.28874 17.2161 2.45162 17.3634 2.64718 17.4511C2.84275 17.5389 3.06103 17.5626 3.27088 17.519L5.18448 17.1322C5.42798 17.0818 5.68146 17.1224 5.8971 17.2462C6.11275 17.3699 6.27564 17.5684 6.35503 17.804L6.97594 19.6667C7.04676 19.8773 7.1846 20.0591 7.3684 20.184C7.55219 20.309 7.77184 20.3704 7.99381 20.3589H12.0653C12.2787 20.3594 12.4868 20.2928 12.6604 20.1686C12.8339 20.0444 12.964 19.8689 13.0323 19.6667L13.6532 17.804C13.7326 17.5684 13.8955 17.3699 14.1111 17.2462C14.3268 17.1224 14.5802 17.0818 14.8238 17.1322L16.7374 17.519C16.9472 17.5626 17.1655 17.5389 17.361 17.4511C17.5566 17.3634 17.7195 17.2161 17.8265 17.0304L19.8622 13.5086C19.9702 13.3226 20.0167 13.1071 19.9947 12.8933C19.9728 12.6793 19.8836 12.4778 19.7401 12.3177L18.366 10.8519ZM16.8493 12.2159L17.6636 13.132L16.3608 15.3917L15.1597 15.1474C14.4265 14.9974 13.6639 15.122 13.0165 15.4973C12.3693 15.8725 11.8822 16.4724 11.648 17.1831L11.2612 18.3231H8.65542L8.28899 17.1627C8.05474 16.4521 7.56771 15.8521 6.92037 15.4769C6.27302 15.1017 5.51042 14.9771 4.77733 15.127L3.57624 15.3713L2.25301 13.1218L3.06731 12.2057C3.56806 11.6458 3.84489 10.9211 3.84489 10.1699C3.84489 9.41881 3.56806 8.69403 3.06731 8.13418L2.25301 7.2181L3.55589 4.97878L4.75697 5.22307C5.49007 5.37292 6.25267 5.24839 6.90001 4.87312C7.54735 4.49785 8.03438 3.89796 8.26863 3.18732L8.65542 2.03713H11.2612L11.648 3.1975C11.8822 3.90814 12.3693 4.50803 13.0165 4.8833C13.6639 5.25857 14.4265 5.3831 15.1597 5.23325L16.3608 4.98896L17.6636 7.24863L16.8493 8.16472C16.3542 8.72329 16.0808 9.44386 16.0808 10.1903C16.0808 10.9367 16.3542 11.6573 16.8493 12.2159ZM9.9583 6.10862C9.15304 6.10862 8.36586 6.34741 7.6963 6.79478C7.02675 7.24217 6.5049 7.87804 6.19673 8.62202C5.88857 9.36598 5.80795 10.1846 5.96505 10.9744C6.12214 11.7642 6.50991 12.4897 7.07932 13.0591C7.64873 13.6285 8.37421 14.0163 9.16399 14.1734C9.95378 14.3304 10.7724 14.2498 11.5164 13.9417C12.2604 13.6335 12.8962 13.1116 13.3436 12.4421C13.791 11.7725 14.0298 10.9854 14.0298 10.1801C14.0298 9.10028 13.6008 8.06468 12.8373 7.30113C12.0737 6.53758 11.0381 6.10862 9.9583 6.10862ZM9.9583 12.2159C9.55567 12.2159 9.16208 12.0965 8.8273 11.8728C8.49252 11.649 8.2316 11.3312 8.07752 10.9591C7.92344 10.5872 7.88312 10.1778 7.96167 9.78295C8.04022 9.38806 8.23411 9.02532 8.51882 8.74062C8.80351 8.45591 9.16625 8.26203 9.56115 8.18348C9.95604 8.10493 10.3654 8.14525 10.7373 8.29932C11.1094 8.45341 11.4272 8.71433 11.651 9.04911C11.8747 9.38388 11.9941 9.77748 11.9941 10.1801C11.9941 10.72 11.7795 11.2378 11.3978 11.6196C11.016 12.0013 10.4982 12.2159 9.9583 12.2159Z" fill="#262B35"/>
</svg>
