<svg width="21" height="20" viewBox="0 0 21 20" fill="none" xmlns="http://www.w3.org/2000/svg">
<path d="M20.1757 11.0051C20.0273 10.8824 19.8474 10.8038 19.6565 10.7783C19.4656 10.7529 19.2714 10.7816 19.0961 10.8611C18.0088 11.3587 16.8267 11.6147 15.6309 11.6117C13.419 11.6091 11.2979 10.732 9.72996 9.1718C8.16207 7.61161 7.27458 5.49482 7.26101 3.28296C7.2657 2.58975 7.35198 1.8995 7.51807 1.22648C7.55332 1.04709 7.5401 0.861544 7.47978 0.688965C7.41945 0.516386 7.31421 0.36301 7.17488 0.244639C7.03557 0.126267 6.8672 0.0471817 6.68715 0.0155291C6.50709 -0.0161235 6.32184 0.000801762 6.15051 0.0645612C4.53857 0.789377 3.13732 1.91207 2.07843 3.32715C1.01953 4.74224 0.337736 6.40328 0.0970966 8.15423C-0.143544 9.90518 0.064868 11.6885 0.702752 13.3369C1.34063 14.9852 2.38705 16.4443 3.7437 17.5771C5.10036 18.7098 6.7227 19.4792 8.45835 19.8128C10.194 20.1463 11.9859 20.0333 13.6658 19.4841C15.3458 18.9351 16.8585 17.9678 18.0621 16.6734C19.2655 15.3791 20.1202 13.8001 20.5459 12.0847C20.5977 11.8883 20.5902 11.6809 20.5243 11.4889C20.4585 11.2967 20.3372 11.1283 20.1757 11.0051ZM10.4074 17.884C8.68179 17.8718 7.0021 17.3266 5.59833 16.3228C4.19457 15.3192 3.13537 13.906 2.56573 12.2771C1.9961 10.6482 1.94391 8.88295 2.41629 7.22318C2.88866 5.56341 3.86253 4.09023 5.20453 3.00533V3.28296C5.20725 6.04737 6.30662 8.69777 8.26134 10.6525C10.2161 12.6073 12.8665 13.7066 15.6309 13.7093C16.3568 13.712 17.0807 13.6361 17.7902 13.4831C17.0806 14.8255 16.0179 15.9486 14.7169 16.7314C13.4159 17.5142 11.9259 17.927 10.4074 17.9251V17.884Z" fill="#262B35"/>
</svg>
