<svg width="361" height="35" viewBox="0 0 361 35" fill="none" xmlns="http://www.w3.org/2000/svg">
<path d="M179.782 33.6555H167.375V0.487058H179.782V33.6555ZM168.588 32.4439H178.571V1.69865H168.588V32.4439ZM197.045 33.6555H184.888V0.487058H210.288C213.926 0.1924 217.55 1.21394 220.499 3.36579C221.769 4.52724 222.753 5.96631 223.374 7.5707C223.996 9.1751 224.238 10.9014 224.083 12.615C224.264 15.5761 223.321 18.4966 221.444 20.7933C219.222 23.3424 215.525 24.6558 210.455 24.7018C209.178 24.7357 199.609 24.7018 197.052 24.7018L197.045 33.6555ZM186.093 32.4439H195.833V23.4781H196.442C196.565 23.4781 208.989 23.5169 210.426 23.4781C215.148 23.4369 218.543 22.2666 220.528 19.9815C222.199 17.9035 223.03 15.2737 222.854 12.6126C223.003 11.0772 222.797 9.52814 222.25 8.0855C221.704 6.64286 220.833 5.34545 219.704 4.29387C216.97 2.33133 213.625 1.41011 210.271 1.69622H186.1L186.093 32.4439ZM207.715 17.2506H195.751V8.22183H207.795C208.648 8.10387 209.517 8.20351 210.322 8.51147C211.128 8.81946 211.841 9.32577 212.399 9.98348C212.903 10.8242 213.142 11.7984 213.081 12.7774C213.128 13.6863 212.93 14.5911 212.512 15.3993C211.937 16.092 211.195 16.6252 210.354 16.9478C209.514 17.2703 208.605 17.3712 207.715 17.2409V17.2506ZM196.962 16.0389H207.715C209.702 16.0389 210.933 15.6246 211.478 14.7716C211.778 14.1517 211.913 13.465 211.872 12.7774C211.925 12.0554 211.769 11.3335 211.422 10.6983L211.407 10.6765C210.83 9.82839 209.685 9.43342 207.795 9.43342H196.962V16.0389ZM246.194 34.145C235.314 34.145 228.82 31.4431 226.346 25.8868C225.942 24.8135 225.666 23.6957 225.527 22.5573L225.42 21.8594H238.366L238.45 22.3683C238.55 22.8849 238.77 23.3713 239.089 23.7883C239.601 24.4062 241.307 25.4434 246.967 25.4434C253.772 25.4434 253.772 24.2487 253.772 23.6066C253.772 22.5234 252.984 22.1527 247.436 21.5614L246.381 21.4621C244.292 21.2658 241.65 21.0162 240.444 20.912C230.266 19.9912 225.724 16.8289 225.724 10.6619C225.724 4.18482 233.455 0 245.424 0C255.186 0 261.478 2.57341 264.116 7.65481C264.742 8.83678 265.163 10.1168 265.359 11.4398L265.444 12.1207H252.485L252.432 11.573C252.381 11.1451 252.199 10.7436 251.908 10.4245C251.424 9.77508 249.892 8.70162 245.138 8.70162C239.3 8.70162 238.496 9.44795 238.496 10.2525C238.496 11.3259 240.34 11.7063 246.251 12.3388C248.715 12.5399 252.676 12.947 254.033 13.1118C262.566 14.0375 266.372 17.1222 266.372 23.117C266.374 28.1451 262.873 34.145 246.194 34.145ZM226.836 23.071C226.957 23.8702 227.166 24.6534 227.458 25.4069C229.712 30.469 235.842 32.9333 246.194 32.9333C254.85 32.9333 265.17 31.2371 265.17 23.117C265.17 17.8031 261.802 15.1715 253.905 14.3161C252.548 14.1513 248.611 13.7466 246.15 13.5432C239.851 12.8598 237.29 12.4963 237.29 10.2525C237.29 7.93105 240.049 7.49002 245.143 7.49002C249.168 7.49002 251.767 8.21698 252.87 9.683C253.171 10.0442 253.399 10.4608 253.539 10.9091H264.041C263.83 9.97197 263.496 9.06676 263.047 8.21698C260.624 3.56691 254.705 1.21159 245.429 1.21159C234.197 1.21159 226.94 4.92147 226.94 10.6619C226.94 16.1383 231.013 18.8426 240.556 19.7052C241.768 19.8094 244.406 20.0591 246.5 20.2577L247.561 20.3571C252.715 20.8999 254.988 21.2391 254.988 23.6066C254.988 26.1557 252.049 26.6549 246.972 26.6549C242.276 26.6549 239.31 25.9498 238.164 24.5613C237.811 24.1186 237.544 23.6129 237.379 23.071H226.836ZM289.392 34.1037C276.743 34.1037 269.765 28.9885 269.765 19.6979V0.487058H282.007V19.6979C282.007 22.8844 284.858 24.7115 289.829 24.7115C294.578 24.7115 297.527 22.8045 297.527 19.7392V0.487058H309.643V20.7157C309.655 29.2235 302.267 34.1037 289.385 34.1037H289.392ZM270.976 1.69865V19.6979C270.976 31.179 282.505 32.8922 289.392 32.8922C296.511 32.8922 308.451 31.3098 308.451 20.7157V1.69865H298.757V19.7392C298.757 23.4951 295.258 25.9231 289.848 25.9231C284.192 25.9231 280.815 23.5969 280.815 19.6979V1.69865H270.976ZM360.985 33.6555H349.431V18.6802L342.879 33.6555H332.801L326.317 18.7093V33.6555H314.721V0.487058H329.973L337.897 18.7747L346.204 0.487058H361L360.985 33.6555ZM350.643 32.4439H359.774V1.69865H346.975L337.859 21.7601L329.169 1.69865H315.923V32.4439H325.096V12.8792L333.577 32.4511H342.057L350.628 12.9082L350.643 32.4439ZM11.0352 1.09286H0V33.0496H30.4932V24.5419H11.0352V1.09286ZM52.767 0.365899C38.6812 0.365899 31.2735 7.04174 31.2735 16.8434C31.2735 27.9173 39.0495 33.5342 52.767 33.5342C67.8682 33.5342 74.2194 27.0208 74.2194 16.8434C74.2194 6.50864 67.0541 0.361053 52.767 0.361053V0.365899ZM52.7258 8.67012C53.6847 8.6656 54.643 8.72143 55.5949 8.83731L43.2585 21.1737C42.6747 19.8533 42.39 18.42 42.4249 16.9768C42.4249 11.9632 44.9498 8.66526 52.7258 8.66526V8.67012ZM52.767 25.3609C51.8431 25.3651 50.9199 25.3132 50.0022 25.2059L62.3604 12.8476C62.9223 14.1463 63.1913 15.5527 63.1479 16.967C63.1479 21.8449 60.8216 25.3561 52.767 25.3561V25.3609ZM96.0837 20.9992H107.441C107.274 21.7875 106.926 22.5258 106.423 23.1559C104.069 25.074 101.063 26.0075 98.0368 25.7607C96.5131 25.9238 94.9724 25.7573 93.5187 25.2727C92.0651 24.7883 90.7323 23.9969 89.6113 22.9523C88.463 21.2679 87.9175 19.245 88.063 17.2118C87.8771 15.0812 88.4703 12.9555 89.7325 11.229C91.3197 9.43584 94.007 8.66284 97.9568 8.66284C100.47 8.45477 102.98 9.10018 105.081 10.4948C105.744 11.0207 106.238 11.728 106.506 12.5303H117.039C116.962 11.2083 116.645 9.91158 116.102 8.70404C113.579 3.57418 107.715 0.520983 97.7435 0.520983C89.071 0.520983 83.2506 3.16709 80.035 7.15805C77.9113 10.0401 76.8211 13.5539 76.9406 17.1318C76.8032 20.7908 77.8652 24.3943 79.9647 27.394C83.1415 31.5134 88.7996 33.5392 95.5991 33.5392C100.12 33.8544 104.61 32.5883 108.299 29.9577L108.585 33.0496H117.335V14.1199H96.0837V20.9992ZM142.17 0.35863C128.086 0.35863 120.677 7.03448 120.677 16.8362C120.677 27.9101 128.45 33.527 142.17 33.527C157.274 33.527 163.625 27.0135 163.625 16.8362C163.625 6.50865 156.46 0.361053 142.17 0.361053V0.35863ZM142.131 8.66284C143.065 8.66008 143.998 8.71349 144.925 8.82277L132.637 21.118C132.072 19.8121 131.796 18.3994 131.83 16.9768C131.82 11.9632 134.356 8.66526 142.131 8.66526V8.66284ZM142.17 25.3537C141.222 25.3578 140.274 25.3025 139.333 25.1888L151.732 12.7871C152.315 14.1029 152.595 15.5333 152.548 16.972C152.554 21.8449 150.236 25.3561 142.17 25.3561V25.3537Z" fill="#0061FF"/>
</svg>
