<svg width="18" height="18" viewBox="0 0 18 18" fill="none" xmlns="http://www.w3.org/2000/svg">
<path fill-rule="evenodd" clip-rule="evenodd" d="M5.25415 2.65857C3.33273 3.9666 2.07441 6.17054 2.07441 8.66509C2.07441 12.675 5.32503 15.9256 9.33486 15.9256C11.8294 15.9256 14.0333 14.6672 15.3414 12.7458C10.042 12.1665 5.83347 7.95799 5.25415 2.65857ZM16.5953 10.7395C17.4935 10.7395 18.2671 11.5311 17.9116 12.3561C16.481 15.6759 13.1794 18 9.33486 18C4.17936 18 0 13.8206 0 8.66509C0 4.82061 2.32404 1.51894 5.64385 0.0883463C6.46879 -0.267139 7.26044 0.506389 7.26044 1.40466C7.26044 6.56015 11.4398 10.7395 16.5953 10.7395Z" fill="#535763"/>
</svg>
