<svg width="17" height="17" viewBox="0 0 17 17" fill="none" xmlns="http://www.w3.org/2000/svg">
<path d="M16.7612 15.555L13.6097 12.4288C14.8329 10.9035 15.4254 8.9674 15.2652 7.01868C15.1048 5.06994 14.204 3.25669 12.7479 1.95175C11.2917 0.646809 9.39089 -0.0506208 7.4363 0.00286361C5.48172 0.0563479 3.62191 0.85668 2.23929 2.23929C0.85668 3.62191 0.0563479 5.48172 0.00286361 7.4363C-0.0506208 9.39089 0.646809 11.2917 1.95175 12.7479C3.25669 14.204 5.06994 15.1048 7.01868 15.2652C8.9674 15.4254 10.9035 14.8329 12.4288 13.6097L15.555 16.7357C15.634 16.8154 15.7279 16.8786 15.8314 16.9217C15.9349 16.9648 16.0459 16.987 16.1582 16.987C16.2703 16.987 16.3813 16.9648 16.4848 16.9217C16.5883 16.8786 16.6822 16.8154 16.7612 16.7357C16.9143 16.5773 17 16.3657 17 16.1454C17 15.925 16.9143 15.7134 16.7612 15.555ZM7.66318 13.6097C6.48708 13.6097 5.3374 13.2608 4.35951 12.6075C3.38162 11.9541 2.61946 11.0253 2.16938 9.93879C1.71931 8.85222 1.60155 7.65659 1.831 6.50309C2.06044 5.3496 2.62679 4.29003 3.45841 3.45841C4.29003 2.62679 5.3496 2.06044 6.50309 1.831C7.65659 1.60155 8.85222 1.71931 9.93879 2.16938C11.0253 2.61946 11.9541 3.38162 12.6075 4.35951C13.2608 5.3374 13.6097 6.48708 13.6097 7.66318C13.6097 9.24027 12.9832 10.7527 11.8679 11.8679C10.7527 12.9832 9.24027 13.6097 7.66318 13.6097Z" fill="#BAC1CE"/>
</svg>
