<svg width="67" height="12" viewBox="0 0 67 12" fill="none" xmlns="http://www.w3.org/2000/svg">
<path opacity="0.35" d="M43.051 2.6829C43.051 1.48022 44.026 0.505238 45.2287 0.505238H61.9799C63.1827 0.505238 64.1576 1.48022 64.1576 2.68291V8.71338C64.1576 9.91603 63.1827 10.891 61.9799 10.891H45.2287C44.026 10.891 43.051 9.91603 43.051 8.71338V2.6829Z" stroke="#002055"/>
<path opacity="0.4" d="M65.6653 3.68797V7.70829C66.4741 7.36779 67 6.57569 67 5.69813C67 4.82057 66.4741 4.02847 65.6653 3.68797Z" fill="#002055"/>
<path d="M44.5586 3.35296C44.5586 2.61284 45.1586 2.01286 45.8987 2.01286H61.3099C62.05 2.01286 62.65 2.61284 62.65 3.35296V8.04332C62.65 8.78344 62.05 9.38342 61.3099 9.38342H45.8987C45.1586 9.38342 44.5586 8.78344 44.5586 8.04332V3.35296Z" fill="#002055"/>
<path fill-rule="evenodd" clip-rule="evenodd" d="M29.8143 2.2889C32.0415 2.28899 34.1835 3.14475 35.7976 4.6793C35.9191 4.79778 36.1134 4.79628 36.2331 4.67596L37.3949 3.50336C37.4555 3.44233 37.4894 3.35967 37.4889 3.27365C37.4884 3.18764 37.4536 3.10536 37.3923 3.04505C33.1558 -1.01502 26.4722 -1.01502 22.2357 3.04505C22.1743 3.10532 22.1395 3.18757 22.139 3.27358C22.1384 3.3596 22.1721 3.44228 22.2327 3.50336L23.3949 4.67596C23.5145 4.79647 23.709 4.79796 23.8304 4.6793C25.4447 3.14465 27.587 2.28889 29.8143 2.2889ZM29.8143 6.10383C31.038 6.10376 32.218 6.55859 33.125 7.37995C33.2477 7.49651 33.441 7.49399 33.5606 7.37425L34.7211 6.20166C34.7822 6.14015 34.8161 6.05672 34.8153 5.97001C34.8144 5.88331 34.7788 5.80058 34.7164 5.74033C31.9543 3.17096 27.6767 3.17096 24.9146 5.74033C24.8522 5.80058 24.8166 5.88335 24.8158 5.97008C24.8149 6.05681 24.849 6.14024 24.9102 6.20166L26.0704 7.37425C26.19 7.49399 26.3833 7.49651 26.5059 7.37995C27.4124 6.55913 28.5915 6.10434 29.8143 6.10383ZM32.1391 8.67062C32.1408 8.75756 32.1067 8.84139 32.0446 8.9023L30.0371 10.9282C29.9783 10.9877 29.898 11.0213 29.8143 11.0213C29.7306 11.0213 29.6504 10.9877 29.5915 10.9282L27.5837 8.9023C27.5217 8.84134 27.4876 8.75749 27.4894 8.67055C27.4913 8.5836 27.5289 8.50126 27.5934 8.44298C28.8755 7.35862 30.7532 7.35862 32.0352 8.44298C32.0997 8.50131 32.1373 8.58367 32.1391 8.67062Z" fill="#D9D9D9"/>
<path fill-rule="evenodd" clip-rule="evenodd" d="M16.0812 0.337643H15.0762C14.5211 0.337643 14.0711 0.787632 14.0711 1.34272V10.0534C14.0711 10.6085 14.5211 11.0585 15.0762 11.0585H16.0812C16.6363 11.0585 17.0863 10.6085 17.0863 10.0534V1.34272C17.0863 0.787632 16.6363 0.337643 16.0812 0.337643ZM10.3858 2.68283H11.3909C11.946 2.68283 12.396 3.13281 12.396 3.6879V10.0534C12.396 10.6085 11.946 11.0585 11.3909 11.0585H10.3858C9.83073 11.0585 9.38074 10.6085 9.38074 10.0534V3.6879C9.38074 3.13281 9.83073 2.68283 10.3858 2.68283ZM6.70051 5.02801H5.69543C5.14034 5.02801 4.69035 5.47799 4.69035 6.03308V10.0534C4.69035 10.6085 5.14034 11.0585 5.69543 11.0585H6.70051C7.25559 11.0585 7.70559 10.6085 7.70559 10.0534V6.03308C7.70559 5.47799 7.25559 5.02801 6.70051 5.02801ZM2.01016 7.03816H1.00508C0.449988 7.03816 0 7.48815 0 8.04324V10.0534C0 10.6085 0.449988 11.0585 1.00508 11.0585H2.01016C2.56524 11.0585 3.01523 10.6085 3.01523 10.0534V8.04324C3.01523 7.48815 2.56524 7.03816 2.01016 7.03816Z" fill="#D9D9D9"/>
</svg>
