<svg width="12" height="13" viewBox="0 0 12 13" fill="none" xmlns="http://www.w3.org/2000/svg">
<path d="M10.9996 5.00618H3.40643L6.70781 1.71481C6.8962 1.52643 7.00202 1.27092 7.00202 1.00451C7.00202 0.738098 6.8962 0.482596 6.70781 0.294215C6.51943 0.105832 6.26393 0 5.99751 0C5.7311 0 5.4756 0.105832 5.28722 0.294215L0.285133 5.2963C0.194054 5.39145 0.122659 5.50364 0.0750448 5.62644C-0.0250149 5.87 -0.0250149 6.14319 0.0750448 6.38675C0.122659 6.50955 0.194054 6.62175 0.285133 6.71689L5.28722 11.719C5.38022 11.8127 5.49087 11.8872 5.61278 11.938C5.73469 11.9888 5.86545 12.0149 5.99751 12.0149C6.12959 12.0149 6.26034 11.9888 6.38225 11.938C6.50416 11.8872 6.61481 11.8127 6.70781 11.719C6.80158 11.6259 6.87601 11.5153 6.92679 11.3935C6.97758 11.2715 7.00373 11.1407 7.00373 11.0087C7.00373 10.8766 6.97758 10.7459 6.92679 10.6239C6.87601 10.5021 6.80158 10.3914 6.70781 10.2984L3.40643 7.00701H10.9996C11.2649 7.00701 11.5194 6.90161 11.707 6.714C11.8947 6.52638 12 6.27193 12 6.0066C12 5.74127 11.8947 5.48681 11.707 5.2992C11.5194 5.11158 11.2649 5.00618 10.9996 5.00618Z" fill="white"/>
</svg>
