<svg width="14" height="19" viewBox="0 0 14 19" fill="none" xmlns="http://www.w3.org/2000/svg">
<path d="M6.90911 12.091C7.82531 12.091 8.70399 11.727 9.35184 11.0792C9.99969 10.4312 10.3637 9.55259 10.3637 8.63638V3.45455C10.3637 2.53835 9.99969 1.65967 9.35184 1.01182C8.70399 0.36396 7.82531 0 6.90911 0C5.9929 0 5.11422 0.36396 4.46636 1.01182C3.81851 1.65967 3.45455 2.53835 3.45455 3.45455V8.63638C3.45455 9.55259 3.81851 10.4312 4.46636 11.0792C5.11422 11.727 5.9929 12.091 6.90911 12.091ZM5.18183 3.45455C5.18183 2.99645 5.3638 2.55711 5.68774 2.23318C6.01167 1.90925 6.451 1.72728 6.90911 1.72728C7.3672 1.72728 7.80655 1.90925 8.13047 2.23318C8.4544 2.55711 8.63638 2.99645 8.63638 3.45455V8.63638C8.63638 9.09448 8.4544 9.53382 8.13047 9.85774C7.80655 10.1817 7.3672 10.3637 6.90911 10.3637C6.451 10.3637 6.01167 10.1817 5.68774 9.85774C5.3638 9.53382 5.18183 9.09448 5.18183 8.63638V3.45455ZM13.8182 8.63638C13.8182 8.40733 13.7272 8.18766 13.5653 8.0257C13.4033 7.86373 13.1836 7.77274 12.9546 7.77274C12.7255 7.77274 12.5058 7.86373 12.3438 8.0257C12.182 8.18766 12.091 8.40733 12.091 8.63638C12.091 10.0107 11.545 11.3287 10.5732 12.3005C9.60143 13.2722 8.28341 13.8182 6.90911 13.8182C5.53479 13.8182 4.21677 13.2722 3.245 12.3005C2.27322 11.3287 1.72728 10.0107 1.72728 8.63638C1.72728 8.40733 1.63629 8.18766 1.47432 8.0257C1.31236 7.86373 1.09269 7.77274 0.863638 7.77274C0.634587 7.77274 0.414917 7.86373 0.252954 8.0257C0.0909903 8.18766 0 8.40733 0 8.63638C0.001525 10.3181 0.616397 11.9416 1.72934 13.2024C2.84229 14.4632 4.3769 15.2748 6.04546 15.4851V17.2728H4.31819C4.08914 17.2728 3.86947 17.3638 3.7075 17.5257C3.54554 17.6877 3.45455 17.9074 3.45455 18.1364C3.45455 18.3654 3.54554 18.5851 3.7075 18.7471C3.86947 18.909 4.08914 19 4.31819 19H9.50002C9.72907 19 9.94874 18.909 10.1107 18.7471C10.2727 18.5851 10.3637 18.3654 10.3637 18.1364C10.3637 17.9074 10.2727 17.6877 10.1107 17.5257C9.94874 17.3638 9.72907 17.2728 9.50002 17.2728H7.77274V15.4851C9.44131 15.2748 10.9759 14.4632 12.0889 13.2024C13.2018 11.9416 13.8167 10.3181 13.8182 8.63638Z" fill="#BAC1CE"/>
</svg>
