<svg width="24" height="24" viewBox="0 0 24 24" fill="none" xmlns="http://www.w3.org/2000/svg">
<path fill-rule="evenodd" clip-rule="evenodd" d="M10.0541 2.3444C11.1754 1.38886 12.8246 1.38886 13.9458 2.3444L15.2173 3.42794C15.3775 3.56443 15.5766 3.64692 15.7864 3.66366L17.4516 3.79655C18.9201 3.91374 20.0863 5.07987 20.2035 6.5484L20.3363 8.21364C20.3531 8.4234 20.4356 8.62254 20.5721 8.78271L21.6556 10.0542C22.6111 11.1754 22.6111 12.8246 21.6556 13.9458L20.5721 15.2173C20.4356 15.3775 20.3531 15.5766 20.3363 15.7864L20.2035 17.4516C20.0863 18.9201 18.9201 20.0863 17.4516 20.2035L15.7864 20.3363C15.5766 20.3531 15.3775 20.4356 15.2173 20.5721L13.9458 21.6556C12.8246 22.6111 11.1754 22.6111 10.0541 21.6556L8.78265 20.5721C8.62248 20.4356 8.42334 20.3531 8.21358 20.3363L6.54834 20.2035C5.0798 20.0863 3.91368 18.9201 3.79649 17.4516L3.6636 15.7864C3.64686 15.5766 3.56437 15.3775 3.42788 15.2173L2.34434 13.9458C1.3888 12.8246 1.3888 11.1754 2.34434 10.0542L3.42788 8.78271C3.56437 8.62254 3.64686 8.4234 3.6636 8.21364L3.79649 6.5484C3.91368 5.07987 5.0798 3.91374 6.54834 3.79655L8.21358 3.66366C8.42334 3.64692 8.62248 3.56443 8.78265 3.42794L10.0541 2.3444ZM12.6486 3.86664C12.2748 3.54812 11.7251 3.54812 11.3513 3.86664L10.0799 4.95017C9.59938 5.35964 9.00197 5.6071 8.37267 5.65732L6.70743 5.79021C6.21792 5.82927 5.82921 6.21798 5.79015 6.70749L5.65726 8.37273C5.60704 9.00203 5.35958 9.59945 4.95011 10.0799L3.86658 11.3514C3.54806 11.7251 3.54806 12.2748 3.86658 12.6486L4.95011 13.9201C5.35958 14.4006 5.60704 14.998 5.65726 15.6273L5.79015 17.2925C5.82921 17.782 6.21792 18.1707 6.70743 18.2098L8.37267 18.3427C9.00197 18.3929 9.59938 18.6404 10.0799 19.0498L11.3513 20.1334C11.7251 20.4519 12.2748 20.4519 12.6486 20.1334L13.9201 19.0498C14.4006 18.6404 14.998 18.3929 15.6273 18.3427L17.2925 18.2098C17.782 18.1707 18.1707 17.782 18.2098 17.2925L18.3427 15.6273C18.3929 14.998 18.6404 14.4006 19.0498 13.9201L20.1334 12.6486C20.4519 12.2748 20.4519 11.7251 20.1334 11.3514L19.0498 10.0799C18.6404 9.59945 18.3929 9.00203 18.3427 8.37273L18.2098 6.70749C18.1707 6.21798 17.782 5.82927 17.2925 5.79021L15.6273 5.65732C14.998 5.6071 14.4006 5.35964 13.9201 4.95017L12.6486 3.86664Z" fill="#535763"/>
<path d="M11 9.5C11 10.3284 10.3284 11 9.5 11C8.67157 11 8 10.3284 8 9.5C8 8.67157 8.67157 8 9.5 8C10.3284 8 11 8.67157 11 9.5Z" fill="#535763"/>
<path d="M16 14.5C16 15.3284 15.3284 16 14.5 16C13.6716 16 13 15.3284 13 14.5C13 13.6716 13.6716 13 14.5 13C15.3284 13 16 13.6716 16 14.5Z" fill="#535763"/>
<path fill-rule="evenodd" clip-rule="evenodd" d="M15.1402 8.2318C15.5645 8.58537 15.6218 9.21593 15.2682 9.64021L10.2682 15.6402C9.91468 16.0645 9.28412 16.1218 8.85984 15.7682C8.43556 15.4147 8.37824 14.7841 8.7318 14.3598L13.7318 8.35984C14.0854 7.93556 14.7159 7.87824 15.1402 8.2318Z" fill="#535763"/>
</svg>
