<svg width="19" height="19" viewBox="0 0 19 19" fill="none" xmlns="http://www.w3.org/2000/svg">
<path fill-rule="evenodd" clip-rule="evenodd" d="M6.07505 4.21844L4.55712 2.14853C4.45389 2.00777 4.25882 1.9719 4.11227 2.06672C2.12638 3.35172 1.58047 5.31463 2.37721 6.76164C3.24855 8.34416 4.59243 10.2849 6.65377 12.3463C8.71513 14.4076 10.6559 15.7515 12.2384 16.6229C13.6854 17.4196 15.6484 16.8737 16.9333 14.8878C17.0281 14.7412 16.9923 14.5462 16.8515 14.4429L14.7816 12.925C14.4772 12.7018 14.0736 12.6675 13.7359 12.8364L12.9109 13.2489C12.2091 13.5998 11.2472 13.723 10.3366 13.2545C9.72779 12.9414 8.78947 12.3462 7.72168 11.2783C6.65388 10.2106 6.05868 9.27226 5.74548 8.66346C5.27701 7.75286 5.40028 6.7909 5.75115 6.08916L6.16367 5.26411C6.33248 4.92649 6.29827 4.52283 6.07505 4.21844ZM3.01835 0.376113C0.460481 2.0312 -0.85621 5.06406 0.613258 7.73288C1.57229 9.47467 3.02901 11.5693 5.2299 13.7701C7.43079 15.9711 9.52537 17.4277 11.2671 18.3867C13.9359 19.8562 16.9688 18.5396 18.624 15.9817C19.2981 14.9398 19.0431 13.553 18.0423 12.8191L15.9725 11.3012C15.0593 10.6315 13.8483 10.5288 12.8354 11.0353L12.0104 11.4479C11.7715 11.5673 11.4952 11.5861 11.2578 11.464C10.8251 11.2414 10.0585 10.7675 9.14556 9.85449C8.23256 8.9415 7.75863 8.17486 7.53608 7.74227C7.41392 7.50482 7.4328 7.22853 7.55222 6.9897L7.96475 6.16464C8.47116 5.15181 8.36853 3.9408 7.69887 3.02763L6.18094 0.957725C5.44708 -0.0430107 4.06024 -0.298053 3.01835 0.376113Z" fill="#535763"/>
</svg>
