<svg width="67" height="12" viewBox="0 0 67 12" fill="none" xmlns="http://www.w3.org/2000/svg">
<path opacity="0.35" d="M43.0509 2.68266C43.0509 1.47998 44.0259 0.504994 45.2286 0.504994H61.9799C63.1826 0.504994 64.1576 1.47998 64.1576 2.68267V8.71316C64.1576 9.91582 63.1826 10.8908 61.9799 10.8908H45.2286C44.0259 10.8908 43.0509 9.91582 43.0509 8.71316V2.68266Z" stroke="#000910"/>
<path opacity="0.4" d="M65.6652 3.68759V7.70791C66.474 7.36741 67 6.57532 67 5.69775C67 4.82018 66.474 4.02809 65.6652 3.68759Z" fill="#000910"/>
<path d="M44.5585 3.35272C44.5585 2.6126 45.1585 2.01262 45.8986 2.01262H61.3099C62.0499 2.01262 62.65 2.6126 62.65 3.35272V8.0431C62.65 8.78322 62.0499 9.38321 61.3099 9.38321H45.8986C45.1585 9.38321 44.5585 8.78322 44.5585 8.0431V3.35272Z" fill="#000910"/>
<path fill-rule="evenodd" clip-rule="evenodd" d="M29.8144 2.2889C32.0416 2.28899 34.1836 3.14476 35.7977 4.67932C35.9192 4.7978 36.1135 4.7963 36.2332 4.67597L37.395 3.50337C37.4557 3.44234 37.4895 3.35968 37.489 3.27366C37.4885 3.18765 37.4537 3.10537 37.3924 3.04506C33.1559 -1.01502 26.4723 -1.01502 22.2358 3.04506C22.1744 3.10533 22.1396 3.18758 22.139 3.27359C22.1385 3.35961 22.1722 3.44229 22.2328 3.50337L23.395 4.67597C23.5146 4.79648 23.709 4.79798 23.8305 4.67932C25.4448 3.14466 27.5871 2.28889 29.8144 2.2889ZM29.8144 6.10385C31.0381 6.10378 32.2181 6.55861 33.1252 7.37997C33.2478 7.49654 33.4411 7.49402 33.5607 7.37427L34.7212 6.20168C34.7823 6.14017 34.8163 6.05674 34.8154 5.97003C34.8145 5.88333 34.7789 5.80059 34.7165 5.74035C31.9544 3.17097 27.6768 3.17097 24.9146 5.74035C24.8523 5.80059 24.8167 5.88337 24.8158 5.9701C24.815 6.05683 24.849 6.14026 24.9103 6.20168L26.0705 7.37427C26.1901 7.49402 26.3833 7.49654 26.506 7.37997C27.4125 6.55915 28.5916 6.10436 29.8144 6.10385ZM32.1392 8.67065C32.1409 8.75759 32.1068 8.84142 32.0447 8.90233L30.0372 10.9282C29.9784 10.9878 29.8981 11.0213 29.8144 11.0213C29.7307 11.0213 29.6505 10.9878 29.5916 10.9282L27.5838 8.90233C27.5218 8.84137 27.4877 8.75752 27.4895 8.67058C27.4913 8.58363 27.529 8.50129 27.5935 8.44301C28.8756 7.35864 30.7533 7.35864 32.0353 8.44301C32.0998 8.50134 32.1374 8.5837 32.1392 8.67065Z" fill="#D9D9D9"/>
<path fill-rule="evenodd" clip-rule="evenodd" d="M16.0813 0.337644H15.0762C14.5211 0.337644 14.0711 0.787634 14.0711 1.34273V10.0534C14.0711 10.6086 14.5211 11.0585 15.0762 11.0585H16.0813C16.6364 11.0585 17.0864 10.6086 17.0864 10.0534V1.34273C17.0864 0.787634 16.6364 0.337644 16.0813 0.337644ZM10.3858 2.68281H11.3909C11.946 2.68281 12.396 3.1328 12.396 3.68789V10.0534C12.396 10.6085 11.946 11.0585 11.3909 11.0585H10.3858C9.83076 11.0585 9.38077 10.6085 9.38077 10.0534V3.68789C9.38077 3.1328 9.83076 2.68281 10.3858 2.68281ZM6.70053 5.02802H5.69545C5.14036 5.02802 4.69037 5.47801 4.69037 6.0331V10.0534C4.69037 10.6085 5.14036 11.0585 5.69545 11.0585H6.70053C7.25562 11.0585 7.70561 10.6085 7.70561 10.0534V6.0331C7.70561 5.47801 7.25562 5.02802 6.70053 5.02802ZM2.01016 7.03821H1.00508C0.44999 7.03821 0 7.4882 0 8.04329V10.0534C0 10.6085 0.44999 11.0585 1.00508 11.0585H2.01016C2.56525 11.0585 3.01524 10.6085 3.01524 10.0534V8.04329C3.01524 7.4882 2.56525 7.03821 2.01016 7.03821Z" fill="#D9D9D9"/>
</svg>
